<?xml version="1.0" encoding="UTF-8"?>
<svg id="logo_officiel_light" xmlns="http://www.w3.org/2000/svg" viewBox="0 0 4794.48 1000">
  <g>
    <path d="M460.23,1000H20c-11.05,0-20-8.95-20-20V20C0,8.95,8.95,0,20,0h439.41l-63.73,153.85h-221.83c-11.05,0-20,8.95-20,20v652.3c0,11.05,8.95,20,20,20h222.65l23.08,55.72,40.65,98.13Z" style="fill: #ff008c;"/>
    <path d="M1000,288.1v691.9c0,11.05-8.95,20-20,20h-438.71l40.65-98.14,23.08-55.71h221.13c11.05,0,20-8.95,20-20v-400.15l153.85-137.9Z" style="fill: #ff008c;"/>
    <path d="M980,0h-121.31c-5.54,0-10.84,2.3-14.62,6.36l-351.86,377.08-102.58-102.58c-3.75-3.75-8.84-5.86-14.14-5.86h-80.5c-11.05,0-20,8.95-20,20v80.5c0,5.3,2.11,10.39,5.86,14.14l35.36,35.36,70.98,70.98-106.82,114.48c-3.46,3.7-5.38,8.58-5.38,13.64v80.9c0,11.05,8.95,20,20,20h80.5c5.3,0,10.39-2.11,14.14-5.86l114.19-106.53,71.17,71.17,35.36,35.36c3.75,3.75,8.84,5.86,14.14,5.86h80.5c11.05,0,20-8.95,20-20v-80.5c0-5.3-2.11-10.39-5.86-14.14l-102.75-102.75,376.95-351.65c4.24-3.79,6.66-9.22,6.66-14.91V20c0-11.05-8.95-20-20-20Z" style="fill: #fbf8ff;"/>
  </g>
  <g>
    <path d="M1934.29,345.83v309.36c0,114.58-75.11,190.96-190.96,190.96h-185.87l-78.93-118.4v98.83c0,10.8-8.76,19.56-19.56,19.56h-128.92c-10.8,0-19.56-8.76-19.56-19.56V19.56c0-10.8,8.76-19.56,19.56-19.56h128.92c10.8,0,19.56,8.76,19.56,19.56v253.7l78.93-118.4h185.87c115.85,0,190.96,76.39,190.96,190.96ZM1766.24,431.13c0-90.39-66.2-136.22-148.95-136.22-77.66,0-138.77,44.56-138.77,134.95v141.31c0,89.12,61.11,133.67,138.77,133.67,82.75,0,148.95-45.83,148.95-134.95v-138.77Z" style="fill: #fbf8ff;"/>
    <path d="M2474.58,174.43v112.37c0,10.8-8.76,19.56-19.56,19.56h-257.97v520.22c0,10.8-8.76,19.56-19.56,19.56h-128.92c-10.8,0-19.56-8.76-19.56-19.56V174.43c0-10.8,8.76-19.56,19.56-19.56h135.75l12.73,113.3,78.93-113.3h179.04c10.8,0,19.56,8.76,19.56,19.56Z" style="fill: #fbf8ff;"/>
    <path d="M3099.9,345.83v480.76c0,10.8-8.76,19.56-19.56,19.56h-127.65c-10.8,0-19.56-8.76-19.56-19.56v-81.01l-78.93,100.57h-129.85c-122.22,0-216.42-26.73-216.42-156.59v-120.94c0-115.85,52.2-137.49,162.95-165.5l222.79-53.47c22.91-5.09,36.92-7.64,35.65-22.92-1.27-8.91-8.91-11.46-17.82-11.46h-330.53c-10.8,0-19.56-8.76-19.56-19.56v-121.28c0-10.8,8.76-19.56,19.56-19.56h327.99c115.85,0,190.96,76.39,190.96,190.96ZM2933.13,487.14l-183.32,45.83c-59.83,16.55-59.83,36.92-59.83,81.48v35.65c0,40.74,16.55,56.02,68.75,56.02l174.41,1.27v-220.24Z" style="fill: #fbf8ff;"/>
    <path d="M3988,588.99v11.46c0,47.11,38.19,85.3,85.3,85.3h283.43c10.8,0,19.56,8.76,19.56,19.56v121.28c0,10.8-8.76,19.56-19.56,19.56h-345.81c-115.85,0-190.96-76.39-190.96-190.96v-309.36c0-114.58,75.11-190.96,190.96-190.96h174.41c115.85,0,190.96,76.39,190.96,190.96v117.12c0,69.61-56.43,126.04-126.04,126.04h-262.25ZM3988,560.98l86.57-124.76h134.95l-1.27-35.65c0-58.56-26.73-85.3-85.3-85.3h-49.65c-57.29,0-85.3,26.73-85.3,85.3v160.41Z" style="fill: #fbf8ff;"/>
    <path d="M4794.48,174.43v117.46c0,10.8-8.76,19.56-19.56,19.56h-68.28v534.69h-168.05V311.46h-69.55c-10.8,0-19.56-8.76-19.56-19.56v-117.46c0-10.8,8.76-19.56,19.56-19.56h69.55V19.56c0-10.8,8.76-19.56,19.56-19.56h129c10.78,0,19.52,8.71,19.56,19.49l.52,135.38h67.68c10.8,0,19.56,8.76,19.56,19.56Z" style="fill: #fbf8ff;"/>
  </g>
  <path d="M3861.41,1000c15.52,0,24.86-17.2,16.41-30.22l-201.92-311-111.36-172.08,195.83-301.62c8.45-13.02-.89-30.22-16.41-30.22h-144.29c-6.64,0-12.82,3.37-16.43,8.94l-215.73,333.52V19.56C3367.5,8.76,3358.75,0,3347.94,0h-128.92c-10.8,0-19.56,8.76-19.56,19.56v807.02c0,10.8,8.76,19.56,19.56,19.56h102.2c6.64,0,12.82-3.36,16.42-8.93l131.83-203.67,231.28,357.52c3.6,5.57,9.79,8.94,16.43,8.94h144.23Z" style="fill: #fbf8ff;"/>
</svg>

