<?xml version="1.0" encoding="UTF-8"?>
<svg id="icon_officiel_light" xmlns="http://www.w3.org/2000/svg" viewBox="0 0 1000 1000">
  <path d="M460.23,1000H20c-11.05,0-20-8.95-20-20V20C0,8.95,8.95,0,20,0h439.41l-63.73,153.85h-221.83c-11.05,0-20,8.95-20,20v652.3c0,11.05,8.95,20,20,20h222.65l23.08,55.72,40.65,98.13Z" style="fill: #ff008c;"/>
  <path d="M1000,288.1v691.9c0,11.05-8.95,20-20,20h-438.71l40.65-98.14,23.08-55.71h221.13c11.05,0,20-8.95,20-20v-400.15l153.85-137.9Z" style="fill: #ff008c;"/>
  <path d="M980,0h-121.31c-5.54,0-10.84,2.3-14.62,6.36l-351.86,377.08-102.58-102.58c-3.75-3.75-8.84-5.86-14.14-5.86h-80.5c-11.05,0-20,8.95-20,20v80.5c0,5.3,2.11,10.39,5.86,14.14l35.36,35.36,70.98,70.98-106.82,114.48c-3.46,3.7-5.38,8.58-5.38,13.64v80.9c0,11.05,8.95,20,20,20h80.5c5.3,0,10.39-2.11,14.14-5.86l114.19-106.53,71.17,71.17,35.36,35.36c3.75,3.75,8.84,5.86,14.14,5.86h80.5c11.05,0,20-8.95,20-20v-80.5c0-5.3-2.11-10.39-5.86-14.14l-102.75-102.75,376.95-351.65c4.24-3.79,6.66-9.22,6.66-14.91V20c0-11.05-8.95-20-20-20Z" style="fill: #fbf8ff;"/>
</svg>

